<?xml version="1.0" encoding="UTF-8"?>
<svg width="81px" height="25px" viewBox="0 0 81 25" version="1.1" xmlns="http://www.w3.org/2000/svg" xmlns:xlink="http://www.w3.org/1999/xlink">
    <!-- Generator: Sketch 50.2 (55047) - http://www.bohemiancoding.com/sketch -->
    <title>logos_colpatria_red</title>
    <desc>Created with Sketch.</desc>
    <defs></defs>
    <g id="Icons-&amp;-Logos" stroke="none" stroke-width="1" fill="none" fill-rule="evenodd">
        <g id="Logos/Colpatria/Red">
            <g id="LOGO/RED" transform="translate(6.000000, 2.500000)">
                <path d="M30.4176884,17.7377642 C30.4964253,17.7377642 30.5816042,17.7191537 30.6710779,17.6797853 C30.7569726,17.6404168 30.8278358,17.5867326 30.8850989,17.5165853 C30.9108674,17.4822274 30.9323411,17.4435747 30.9502358,17.3934695 C30.96312,17.3447958 30.9702779,17.2739326 30.9702779,17.1737221 L30.9702779,16.8179747 C30.9702779,16.7535537 30.9695621,16.7034484 30.9645516,16.6590695 C30.9595411,16.6175537 30.9552463,16.5796168 30.9459411,16.5459747 C30.9387832,16.5137642 30.9266147,16.4879958 30.9180253,16.4679537 C30.9058568,16.44648 30.89512,16.4264379 30.8786568,16.4063958 C30.8256884,16.33768 30.7584042,16.2847116 30.6746568,16.2389011 C30.5923411,16.2002484 30.5057305,16.1780589 30.4176884,16.1780589 C30.3289305,16.1780589 30.2473305,16.1973853 30.1728884,16.2374695 C30.1013095,16.2768379 30.0404674,16.3333853 29.9882147,16.4035326 C29.9352463,16.4772589 29.8944463,16.5602905 29.8658147,16.6511958 C29.8393305,16.7463958 29.8250147,16.8537642 29.8250147,16.96328 C29.8250147,17.0713642 29.8393305,17.1722905 29.8658147,17.2653432 C29.8944463,17.3612589 29.9338147,17.4442905 29.98392,17.5130063 C30.0361726,17.5817221 30.0991621,17.6389853 30.1728884,17.6762063 C30.2473305,17.7162905 30.3289305,17.7377642 30.4176884,17.7377642 M29.4778568,16.96328 C29.4778568,16.8208379 29.4993305,16.6884168 29.5429937,16.5602905 C29.5852253,16.4278695 29.6474989,16.3176379 29.7262358,16.2145642 C29.8064042,16.1165011 29.8987411,16.0356168 30.01112,15.9776379 C30.1213516,15.9146484 30.24232,15.8845853 30.37832,15.8845853 C30.5014358,15.8845853 30.6088042,15.9089221 30.7082989,15.9604589 C30.8099411,16.0077011 30.8965516,16.0735537 30.9702779,16.1544379 L30.9702779,15.1795326 C30.9702779,15.1301432 30.9867411,15.0922063 31.0196674,15.0621432 C31.0504463,15.0327958 31.0912463,15.0177642 31.1377726,15.0177642 C31.1857305,15.0177642 31.2243832,15.0327958 31.2565937,15.0621432 C31.2888042,15.0922063 31.3038358,15.1301432 31.3038358,15.1795326 L31.3038358,17.8580168 C31.3038358,17.9059747 31.2888042,17.94248 31.2565937,17.9718274 C31.2243832,18.0018905 31.1857305,18.0169221 31.1377726,18.0169221 C31.0912463,18.0169221 31.0504463,18.0018905 31.0196674,17.9718274 C30.9867411,17.94248 30.9702779,17.9059747 30.9702779,17.8580168 L30.9702779,17.7578063 C30.8965516,17.8437011 30.8099411,17.9102695 30.7082989,17.9575116 C30.6088042,18.0040379 30.5014358,18.0283747 30.37832,18.0283747 C30.2458989,18.0283747 30.1220674,17.9975958 30.0132674,17.9410484 C29.9037516,17.8816379 29.8064042,17.8029011 29.7262358,17.7069853 C29.6474989,17.6082063 29.5852253,17.4929642 29.5429937,17.3669853 C29.4993305,17.2381432 29.4778568,17.1042905 29.4778568,16.96328 Z M32.0807537,17.0243368 C32.0807537,17.1173895 32.0950695,17.2047158 32.1244168,17.2884632 C32.1523326,17.3757895 32.1959958,17.4480842 32.24968,17.5168 C32.3019326,17.5833684 32.3706484,17.6392 32.4501011,17.6764211 C32.5274063,17.7172211 32.6197432,17.7379789 32.7206695,17.7379789 C32.8165853,17.7379789 32.9053432,17.7172211 32.9847958,17.6764211 C33.0678274,17.6392 33.1329642,17.5941053 33.1809221,17.5475789 C33.2238695,17.5024842 33.2567958,17.4752842 33.2789853,17.4602526 C33.3026063,17.4430737 33.3283747,17.4352 33.3627326,17.4352 C33.4035326,17.4352 33.4371747,17.4459368 33.4629432,17.4752842 C33.4901432,17.5024842 33.5037432,17.5354105 33.5037432,17.5762105 C33.5037432,17.6234526 33.4865642,17.6664 33.4536379,17.7072 C33.4228589,17.7444211 33.3806274,17.7888 33.3226484,17.8338947 C33.2639537,17.8775579 33.1816379,17.9226526 33.0828589,17.9656 C32.9790695,18.0099789 32.8573853,18.0285895 32.7142274,18.0285895 C32.5725011,18.0285895 32.4436589,18.0021053 32.3255537,17.9498526 C32.2074484,17.8947368 32.1029432,17.8188632 32.0199116,17.7229474 C31.9333011,17.6284632 31.8681642,17.5153684 31.8194905,17.3858105 C31.7708168,17.2569684 31.7457642,17.1173895 31.7457642,16.9685053 C31.7457642,16.8124632 31.7708168,16.6707368 31.8194905,16.5390316 C31.8681642,16.4058947 31.9333011,16.2928 32.0199116,16.1933053 C32.1029432,16.0981053 32.2060168,16.0222316 32.3191116,15.9685474 C32.4357853,15.9148632 32.5610484,15.8848 32.6927537,15.8848 C32.8244589,15.8848 32.9439958,15.9091368 33.0485011,15.9613895 C33.1580168,16.0114947 33.2489221,16.0787789 33.3276589,16.1610947 C33.4049642,16.2434105 33.4650905,16.3414737 33.5066063,16.4481263 C33.5488379,16.5569263 33.5681642,16.6707368 33.5681642,16.7874105 C33.5681642,16.9456 33.4808379,17.0243368 33.3097642,17.0243368 L32.0807537,17.0243368 Z M32.6855958,16.1782737 C32.6011326,16.1782737 32.5274063,16.1933053 32.4608379,16.2290947 C32.3921221,16.2605895 32.3327116,16.3064 32.2833221,16.3600842 C32.2325011,16.4137684 32.1888379,16.4746105 32.1566274,16.5426105 C32.1258484,16.6106105 32.1029432,16.6793263 32.0922063,16.7466105 L33.1902274,16.7466105 C33.2117011,16.7466105 33.2238695,16.7373053 33.2238695,16.7158316 C33.2238695,16.6592842 33.2131326,16.6013053 33.1916589,16.5354526 C33.1694695,16.4724632 33.1365432,16.4137684 33.0950274,16.3615158 C33.0470695,16.3092632 32.9941011,16.2648842 32.9253853,16.2305263 C32.8595326,16.1933053 32.78008,16.1782737 32.6855958,16.1782737 Z M34.3324842,17.8580168 C34.3324842,17.9059747 34.3167368,17.94248 34.2845263,17.9718274 C34.2537474,18.0018905 34.2129474,18.0169221 34.1657053,18.0169221 C34.1170316,18.0169221 34.0769474,18.0018905 34.0461684,17.9718274 C34.0153895,17.94248 33.9989263,17.9059747 33.9989263,17.8580168 L33.9989263,15.1795326 C33.9989263,15.1301432 34.0153895,15.0922063 34.0461684,15.0621432 C34.0769474,15.0327958 34.1170316,15.0177642 34.1657053,15.0177642 C34.2129474,15.0177642 34.2537474,15.0327958 34.2845263,15.0621432 C34.3167368,15.0922063 34.3324842,15.1301432 34.3324842,15.1795326 L34.3324842,17.8580168 Z M36.6837095,18.7901179 C36.5627411,18.7901179 36.4510779,18.76936 36.3494358,18.7364337 C36.2442147,18.6999284 36.1733516,18.6634232 36.1339832,18.6211916 C36.1189516,18.6054442 36.1089305,18.5846863 36.1017726,18.5660758 C36.0938989,18.5446021 36.0910358,18.5252758 36.0910358,18.5066653 C36.0910358,18.47016 36.10392,18.4336547 36.1289726,18.3964337 C36.1547411,18.3656547 36.1905305,18.3463284 36.2363411,18.3463284 C36.2542358,18.3463284 36.2692674,18.34776 36.2893095,18.3542021 C36.3043411,18.36136 36.3236674,18.3678021 36.3451411,18.3842653 L36.3666147,18.3964337 C36.4124253,18.4286442 36.4675411,18.4515495 36.5290989,18.4637179 C36.5885095,18.4808968 36.64792,18.4880547 36.7080463,18.4880547 C36.8719621,18.4880547 37.0058147,18.4365179 37.1060253,18.3291495 C37.2048042,18.2232126 37.2549095,18.07576 37.2549095,17.8817811 L37.2549095,17.7164337 C37.1747411,17.8073389 37.08312,17.87176 36.9836253,17.9168547 C36.8826989,17.9598021 36.7803411,17.9834232 36.6679621,17.9834232 C36.53912,17.9834232 36.4224463,17.9569389 36.3150779,17.9025389 C36.2091411,17.8510021 36.1153726,17.7779916 36.0387832,17.6856547 C35.9600463,17.5926021 35.8992042,17.4816547 35.8569726,17.3542442 C35.8133095,17.2318442 35.7932674,17.0951284 35.7932674,16.9455284 C35.7932674,16.8138232 35.8133095,16.6792547 35.8555411,16.5539916 C35.8963411,16.4251495 35.9557516,16.3106232 36.0337726,16.2147074 C36.1103621,16.1137811 36.2041305,16.03576 36.3107832,15.9777811 C36.4174358,15.9169389 36.5376884,15.8847284 36.6679621,15.8847284 C36.7803411,15.8847284 36.8826989,15.9090653 36.9821937,15.9563074 C37.0809726,16.0021179 37.1697305,16.0722653 37.2506147,16.1545811 L37.2506147,16.0486442 C37.2506147,16.0021179 37.2670779,15.9670442 37.3035832,15.9412758 C37.3379411,15.9119284 37.3773095,15.8968968 37.4209726,15.8968968 C37.46392,15.8968968 37.5011411,15.9119284 37.5369305,15.9362653 C37.5677095,15.9641811 37.5848884,15.9992547 37.5848884,16.0443495 L37.5848884,17.8667495 C37.5848884,18.0242232 37.5605516,18.1609389 37.5140253,18.2726021 C37.4674989,18.3878442 37.4023621,18.4851916 37.3207621,18.5603495 C37.2441726,18.6390863 37.1468253,18.6956337 37.0358779,18.7299916 C36.9256463,18.7679284 36.8061095,18.7901179 36.6837095,18.7901179 Z M36.7101937,17.7014021 C36.8161305,17.7014021 36.9077516,17.6763495 36.9836253,17.6341179 C37.0594989,17.5926021 37.1210568,17.5410653 37.1682989,17.4816547 C37.1947832,17.4480126 37.2176884,17.4107916 37.2312884,17.3671284 C37.2448884,17.3206021 37.2506147,17.2490232 37.2506147,17.1516758 L37.2506147,16.8030863 C37.2506147,16.7014442 37.2448884,16.6184126 37.2320042,16.5618653 C37.21912,16.5017389 37.1969305,16.4502021 37.1654358,16.4036758 C37.1253516,16.3507074 37.0680884,16.2998863 36.9929305,16.2512126 C36.9141937,16.2025389 36.8211411,16.1782021 36.7101937,16.1782021 C36.6235832,16.1782021 36.5469937,16.1968126 36.4761305,16.2361811 C36.4095621,16.2755495 36.3494358,16.3292337 36.2964674,16.4008126 C36.2492253,16.4673811 36.2105726,16.5518442 36.18552,16.6420337 C36.1597516,16.7358021 36.14472,16.8367284 36.14472,16.9455284 C36.14472,17.0500337 36.1597516,17.1516758 36.18552,17.2418653 C36.2105726,17.3320547 36.2485095,17.4122232 36.2957516,17.4802232 C36.3465726,17.5503705 36.4066989,17.6026232 36.4746989,17.6419916 C36.5434147,17.6827916 36.6235832,17.7014021 36.7101937,17.7014021 Z M39.1972758,16.0692589 C39.1972758,16.1165011 39.1836758,16.1515747 39.1564758,16.1809221 C39.12856,16.2066905 39.0956337,16.2188589 39.0591284,16.2188589 C39.04696,16.2188589 39.0326442,16.2188589 39.0183284,16.2159958 C39.0018653,16.2145642 38.9868337,16.2109853 38.9675074,16.2038274 C38.9360126,16.1930905 38.9038021,16.1916589 38.8730232,16.1916589 C38.7806863,16.1916589 38.69336,16.2260168 38.6067495,16.2997432 C38.5702442,16.3290905 38.5380337,16.3613011 38.5122653,16.3927958 C38.4857811,16.4278695 38.4664547,16.4629432 38.4542863,16.4980168 C38.4292337,16.5645853 38.42136,16.6404589 38.42136,16.7227747 L38.42136,17.8601642 C38.42136,17.9059747 38.4041811,17.94248 38.3712547,17.9718274 C38.3376126,18.0018905 38.29896,18.0154905 38.2524337,18.0154905 C38.2044758,18.0154905 38.1643916,18.0018905 38.1336126,17.9718274 C38.1021179,17.94248 38.0856547,17.9059747 38.0856547,17.8601642 L38.0856547,16.0570905 C38.0856547,16.01128 38.1021179,15.9697642 38.1336126,15.9425642 C38.1643916,15.9146484 38.2044758,15.8996168 38.2524337,15.8996168 C38.29896,15.8996168 38.3376126,15.9146484 38.3712547,15.9425642 C38.4041811,15.9697642 38.42136,16.01128 38.42136,16.0570905 L38.42136,16.1780589 C38.4979495,16.07928 38.5838442,16.0034063 38.6711705,15.9561642 C38.7606442,15.9089221 38.8479705,15.8845853 38.9302863,15.8845853 C39.0226232,15.8845853 39.08776,15.9039116 39.1328547,15.9425642 C39.1758021,15.9790695 39.1972758,16.0227326 39.1972758,16.0692589 Z M39.8326821,17.2274779 C39.8326821,17.30192 39.8362611,17.3620463 39.8455663,17.41072 C39.85344,17.4608253 39.8641768,17.4994779 39.8784926,17.5316884 C39.9092716,17.5982568 39.9608084,17.6505095 40.0209347,17.6855832 C40.0824926,17.7228042 40.15264,17.7378358 40.2349558,17.7378358 C40.3051032,17.7378358 40.3788295,17.7228042 40.4582821,17.6956042 C40.5355874,17.6648253 40.6035874,17.6233095 40.6622821,17.5660463 C40.6959242,17.5359832 40.7274189,17.4930358 40.7574821,17.4429305 C40.7861137,17.3892463 40.8011453,17.3069305 40.8011453,17.2045726 L40.8011453,16.0571621 C40.8011453,16.0113516 40.8161768,15.9698358 40.8455242,15.9426358 C40.8805979,15.91472 40.9199663,15.8996884 40.9650611,15.8996884 C41.0144505,15.8996884 41.0552505,15.91472 41.0853137,15.9426358 C41.1168084,15.9698358 41.1332716,16.0113516 41.1332716,16.0571621 L41.1332716,17.8494989 C41.1332716,17.8981726 41.1168084,17.9368253 41.0853137,17.9690358 C41.0552505,17.9976674 41.0144505,18.0155621 40.9650611,18.0155621 C40.9199663,18.0155621 40.8805979,17.9976674 40.8455242,17.9690358 C40.8161768,17.9368253 40.8011453,17.8981726 40.8011453,17.8494989 L40.8011453,17.7399832 C40.7109558,17.8380463 40.6136084,17.9103411 40.5069558,17.9575832 C40.4024505,18.0041095 40.2979453,18.0284463 40.1955874,18.0284463 C39.9722611,18.0284463 39.8004716,17.9625937 39.6816505,17.8308884 C39.5578189,17.6920253 39.5005558,17.5023411 39.5005558,17.2625516 L39.5005558,16.0571621 C39.5005558,16.0113516 39.5141558,15.9698358 39.5485137,15.9426358 C39.5778611,15.91472 39.6208084,15.8996884 39.6666189,15.8996884 C39.7131453,15.8996884 39.7525137,15.91472 39.7840084,15.9426358 C39.8169347,15.9698358 39.8326821,16.0113516 39.8326821,16.0571621 L39.8326821,17.2274779 Z M43.4756926,16.9584842 C43.4756926,17.0980632 43.4563663,17.2319158 43.4134189,17.3621895 C43.3733347,17.4874526 43.3132084,17.6026947 43.2351874,17.7029053 C43.1585979,17.8002526 43.0648295,17.8789895 42.9560295,17.9398316 C42.8479453,17.9978105 42.7248295,18.0285895 42.5895453,18.0285895 C42.4700084,18.0285895 42.3597768,18.0042526 42.2602821,17.9570105 C42.15864,17.9061895 42.0727453,17.8403368 41.9983032,17.7594526 L41.9983032,18.6348632 C41.9983032,18.6792421 41.9825558,18.7186105 41.9503453,18.7479579 C41.9188505,18.7787368 41.8787663,18.7916211 41.8300926,18.7916211 C41.7821347,18.7916211 41.7420505,18.7787368 41.7105558,18.7479579 C41.6797768,18.7186105 41.6640295,18.6792421 41.6640295,18.6348632 L41.6640295,16.0573053 C41.6640295,16.0114947 41.6797768,15.9699789 41.7105558,15.9427789 C41.7420505,15.9148632 41.7821347,15.8991158 41.8300926,15.8991158 C41.8787663,15.8991158 41.9188505,15.9148632 41.9503453,15.9427789 C41.9825558,15.9699789 41.9983032,16.0114947 41.9983032,16.0573053 L41.9983032,16.1560842 C42.0727453,16.0709053 42.15864,16.0036211 42.2602821,15.9556632 C42.3597768,15.9091368 42.4700084,15.8848 42.5895453,15.8848 C42.7233979,15.8848 42.8443663,15.9148632 42.9531663,15.9742737 C43.0648295,16.0315368 43.1585979,16.1109895 43.2337558,16.2112 C43.3103453,16.3078316 43.3711874,16.4237895 43.4134189,16.5504842 C43.4563663,16.6793263 43.4756926,16.8153263 43.4756926,16.9584842 Z M42.5609137,16.1782737 C42.4807453,16.1782737 42.3919874,16.1968842 42.3039453,16.2362526 C42.21304,16.2756211 42.1407453,16.3293053 42.0834821,16.4008842 C42.0548505,16.4323789 42.0355242,16.4746105 42.0204926,16.5254316 C42.0047453,16.5733895 41.9983032,16.6478316 41.9983032,16.7451789 L41.9983032,17.0980632 C41.9983032,17.2218947 42.0068926,17.3120842 42.02264,17.3672 C42.0383874,17.4251789 42.0620084,17.4717053 42.0870611,17.5089263 C42.1407453,17.5790737 42.2108926,17.6327579 42.2967874,17.6735579 C42.3833979,17.7172211 42.4707242,17.7379789 42.5609137,17.7379789 C42.6496716,17.7379789 42.7291242,17.7172211 42.7949768,17.6764211 C42.8694189,17.6392 42.9266821,17.5805053 42.9775032,17.5103579 C43.0233137,17.4387789 43.0626821,17.3557474 43.0841558,17.2626947 C43.11064,17.1696421 43.1235242,17.0658526 43.1235242,16.9527579 C43.1235242,16.8446737 43.11064,16.7451789 43.0841558,16.6492632 C43.0626821,16.5540632 43.0233137,16.4724632 42.9775032,16.4030316 C42.9266821,16.3321684 42.8694189,16.2784842 42.7949768,16.2376842 C42.7291242,16.1968842 42.6496716,16.1782737 42.5609137,16.1782737 Z M44.7837979,18.0283747 C44.6520926,18.0283747 44.5304084,18.0018905 44.4144505,17.9496379 C44.2999242,17.8981011 44.1947032,17.8222274 44.1059453,17.7284589 C44.0171874,17.6339747 43.9477558,17.5223116 43.8969347,17.3877432 C43.8432505,17.2581853 43.8181979,17.1143116 43.8181979,16.9568379 C43.8181979,16.8029432 43.8432505,16.6576379 43.8969347,16.5259326 C43.9477558,16.3949432 44.0171874,16.2811326 44.1045137,16.1866484 C44.19184,16.0921642 44.2934821,16.0184379 44.4108716,15.9640379 C44.5275453,15.9117853 44.6520926,15.8845853 44.7837979,15.8845853 C44.9147874,15.8845853 45.0371874,15.9117853 45.1524295,15.9640379 C45.2683874,16.0184379 45.3736084,16.0921642 45.4602189,16.1866484 C45.5461137,16.2811326 45.6162611,16.3949432 45.6685137,16.5259326 C45.7193347,16.6576379 45.7472505,16.8029432 45.7472505,16.9568379 C45.7472505,17.1143116 45.7193347,17.2581853 45.6685137,17.3877432 C45.6162611,17.5223116 45.5461137,17.6339747 45.4559242,17.7284589 C45.3671663,17.8222274 45.2640926,17.8981011 45.1495663,17.9496379 C45.03504,18.0018905 44.9097768,18.0283747 44.7837979,18.0283747 Z M44.7837979,17.7377642 C44.8668295,17.7377642 44.9462821,17.7191537 45.0185768,17.6797853 C45.0958821,17.6404168 45.1610189,17.5867326 45.2168505,17.5165853 C45.2748295,17.4457221 45.3184926,17.3648379 45.3514189,17.2717853 C45.3843453,17.1737221 45.4000926,17.0713642 45.4000926,16.9568379 C45.4000926,16.8466063 45.3843453,16.7449642 45.3514189,16.6461853 C45.3184926,16.5502695 45.2748295,16.4679537 45.2168505,16.4006695 C45.1610189,16.3305221 45.0958821,16.2754063 45.0185768,16.2360379 C44.9462821,16.1973853 44.8668295,16.1780589 44.7837979,16.1780589 C44.6979032,16.1780589 44.6205979,16.1973853 44.54544,16.2360379 C44.4681347,16.2754063 44.4058611,16.3305221 44.3471663,16.4006695 C44.2877558,16.4679537 44.2440926,16.5502695 44.2133137,16.6461853 C44.1825347,16.7449642 44.16464,16.8466063 44.16464,16.9568379 C44.16464,17.0713642 44.1825347,17.1737221 44.2133137,17.2717853 C44.2440926,17.3648379 44.2877558,17.4457221 44.3471663,17.5165853 C44.4058611,17.5867326 44.4681347,17.6404168 44.54544,17.6797853 C44.6205979,17.7191537 44.6979032,17.7377642 44.7837979,17.7377642 Z M48.1366274,17.5545937 C48.2690484,17.5545937 48.3807116,17.5223832 48.4723326,17.4601095 C48.5639537,17.3985516 48.61048,17.3212463 48.61048,17.2196042 C48.61048,17.1852463 48.6004589,17.15232 48.5839958,17.1172463 C48.5675326,17.0793095 48.5389011,17.0442358 48.4945221,17.0091621 C48.4522905,16.9719411 48.39288,16.9340042 48.3191537,16.8989305 C48.2454274,16.8624253 48.14808,16.8273516 48.0321221,16.7872674 L47.9276168,16.7536253 C47.6441642,16.6634358 47.4401642,16.5467621 47.3163326,16.4036042 C47.1917853,16.2590147 47.1295116,16.0936674 47.1295116,15.9089937 C47.1295116,15.7865937 47.1538484,15.6734989 47.2061011,15.5732884 C47.2554905,15.4745095 47.3242063,15.3893305 47.4108168,15.3206147 C47.4981432,15.2504674 47.6062274,15.2010779 47.7250484,15.1631411 C47.8460168,15.1252042 47.9748589,15.1051621 48.1180168,15.1051621 C48.25688,15.1051621 48.3864379,15.1237726 48.50168,15.1588463 C48.6176379,15.1924884 48.7178484,15.2375832 48.8015958,15.2934147 C48.8867747,15.3449516 48.9519116,15.4050779 48.9970063,15.4702147 C49.0435326,15.5324884 49.0642905,15.5911832 49.0642905,15.6477305 C49.0642905,15.7193095 49.0413853,15.7772884 48.9927116,15.8281095 C48.9447537,15.8782147 48.88248,15.9018358 48.8058905,15.9018358 C48.7658063,15.9018358 48.7264379,15.8932463 48.6885011,15.8724884 C48.6534274,15.8524463 48.6076168,15.8173726 48.5539326,15.76512 C48.4959537,15.7128674 48.4372589,15.6692042 48.3671116,15.6326989 C48.2998274,15.5997726 48.2125011,15.5818779 48.1101432,15.5818779 C47.9748589,15.5818779 47.8710695,15.6112253 47.7894695,15.6692042 C47.7078695,15.7271832 47.6685011,15.8001937 47.6685011,15.8846568 C47.6685011,15.9669726 47.7121642,16.0399832 47.7937642,16.0993937 C47.8775116,16.15952 48.0077853,16.2189305 48.1845853,16.2769095 L48.2862274,16.3105516 C48.4551537,16.3642358 48.5947326,16.4279411 48.7063958,16.4959411 C48.8187747,16.5632253 48.9068168,16.6319411 48.9712379,16.7042358 C49.0349432,16.7765305 49.0814695,16.85312 49.1086695,16.9297095 C49.1351537,17.0113095 49.1494695,17.0921937 49.1494695,17.1737937 C49.1494695,17.3069305 49.1208379,17.4264674 49.0642905,17.53312 C49.0106063,17.6390568 48.9354484,17.7285305 48.8388168,17.8015411 C48.74648,17.8759832 48.6369642,17.9325305 48.5102695,17.9704674 C48.3864379,18.0112674 48.2540168,18.0284463 48.1180168,18.0284463 C47.9648379,18.0284463 47.8259747,18.0062568 47.6957011,17.9640253 C47.5661432,17.9182147 47.4530484,17.8616674 47.3614274,17.7958147 C47.2655116,17.7285305 47.1917853,17.6548042 47.1373853,17.5760674 C47.0837011,17.4930358 47.0615116,17.4150147 47.0615116,17.3420042 C47.0615116,17.2754358 47.0837011,17.2167411 47.1373853,17.1737937 C47.1917853,17.1301305 47.2497642,17.1086568 47.3091747,17.1086568 C47.3485432,17.1086568 47.3871958,17.1143832 47.4265642,17.1301305 C47.4659326,17.1422989 47.5031537,17.1723621 47.5403747,17.2196042 C47.6362905,17.3362779 47.7300589,17.4221726 47.8181011,17.4751411 C47.9068589,17.5266779 48.0127958,17.5545937 48.1366274,17.5545937 Z M50.4300884,16.3362484 C50.3649516,16.3362484 50.3041095,16.35128 50.2482779,16.3813432 C50.1953095,16.4135537 50.1452042,16.4572168 50.1036884,16.5109011 C50.0621726,16.5645853 50.0285305,16.6268589 50.0056253,16.7041642 C49.9805726,16.7764589 49.9705516,16.8609221 49.9705516,16.9525432 C49.9705516,17.0455958 49.9805726,17.1300589 50.0056253,17.2030695 C50.0285305,17.2753642 50.0621726,17.3405011 50.1036884,17.3934695 C50.1452042,17.4471537 50.1953095,17.4872379 50.2482779,17.5165853 C50.3041095,17.5473642 50.3649516,17.5609642 50.4300884,17.5609642 C50.4894989,17.5609642 50.5481937,17.5502274 50.6047411,17.5223116 C50.6598568,17.4979747 50.7121095,17.4485853 50.7629305,17.3834484 C50.8022989,17.3354905 50.8373726,17.3047116 50.8674358,17.2853853 C50.9010779,17.2682063 50.9361516,17.2581853 50.97552,17.2581853 C51.0442358,17.2581853 51.1029305,17.2796589 51.1480253,17.3290484 C51.1952674,17.3748589 51.2181726,17.4306905 51.2181726,17.4929642 C51.2181726,17.5588168 51.1988463,17.6196589 51.1637726,17.6797853 C51.1294147,17.7377642 51.0714358,17.7957432 50.9905516,17.8580168 C50.9246989,17.9088379 50.8466779,17.9496379 50.7514779,17.9804168 C50.6584253,18.0126274 50.5567832,18.0283747 50.44512,18.0283747 C50.2983832,18.0283747 50.1616674,18.0040379 50.0392674,17.9482063 C49.9154358,17.8952379 49.8094989,17.8186484 49.7185937,17.7227326 C49.6284042,17.6289642 49.5575411,17.5130063 49.5060042,17.3820168 C49.45232,17.24888 49.4258358,17.1050063 49.4258358,16.9482484 C49.4258358,16.8029432 49.45232,16.6626484 49.5045726,16.5338063 C49.5510989,16.4021011 49.6219621,16.2875747 49.7150147,16.18808 C49.8037726,16.0878695 49.9104253,16.0105642 50.0349726,15.9547326 C50.1616674,15.8974695 50.2983832,15.8702695 50.44512,15.8702695 C50.5481937,15.8702695 50.6469726,15.8845853 50.7407411,15.9146484 C50.8330779,15.9468589 50.9125305,15.9862274 50.9884042,16.0356168 C51.0564042,16.0864379 51.1129516,16.1429853 51.1573305,16.2109853 C51.1988463,16.2754063 51.2210358,16.3441221 51.2210358,16.4142695 C51.2210358,16.4937221 51.1952674,16.5545642 51.1422989,16.6003747 C51.0893305,16.6461853 51.0363621,16.6712379 50.9783832,16.6712379 C50.9246989,16.6712379 50.8788884,16.6576379 50.8466779,16.6333011 C50.8158989,16.6082484 50.78512,16.5717432 50.7500463,16.5259326 C50.7142568,16.4715326 50.6677305,16.4264379 50.6190568,16.3899326 C50.5682358,16.3534274 50.5052463,16.3362484 50.4300884,16.3362484 Z M52.4687284,18.0283032 C52.3312968,18.0283032 52.2031705,18.0039663 52.0786232,17.9488505 C51.95336,17.8980295 51.8459916,17.8235874 51.7536547,17.7255242 C51.6606021,17.6317558 51.5868758,17.5172295 51.5310442,17.38624 C51.4780758,17.2531032 51.45016,17.1085137 51.45016,16.9474611 C51.45016,16.7899874 51.4780758,16.6446821 51.5310442,16.5122611 C51.5868758,16.3805558 51.6584547,16.2681768 51.7522232,16.1708295 C51.8416968,16.0763453 51.9504968,16.0004716 52.0728968,15.9467874 C52.1988758,15.8945347 52.3298653,15.8701979 52.4687284,15.8701979 C52.6075916,15.8701979 52.7385811,15.8945347 52.8616968,15.9467874 C52.9862442,16.0004716 53.0943284,16.0763453 53.1852337,16.1708295 C53.2775705,16.2681768 53.3505811,16.3805558 53.4056968,16.5122611 C53.4579495,16.6446821 53.4851495,16.7899874 53.4851495,16.9474611 C53.4851495,17.1085137 53.4579495,17.2531032 53.4056968,17.38624 C53.3505811,17.5172295 53.2761389,17.6317558 53.1830863,17.7255242 C53.0893179,17.8235874 52.9812337,17.8980295 52.8574021,17.9488505 C52.7328547,18.0039663 52.6040126,18.0283032 52.4687284,18.0283032 Z M52.4687284,17.5616084 C52.5345811,17.5616084 52.5975705,17.5465768 52.6534021,17.5208084 C52.7106653,17.4928926 52.7614863,17.4528084 52.8065811,17.3984084 C52.8502442,17.3461558 52.8853179,17.2838821 52.9082232,17.2072926 C52.9361389,17.1342821 52.94616,17.0455242 52.94616,16.9474611 C52.94616,16.85584 52.9361389,16.7685137 52.9082232,16.69264 C52.8853179,16.6167663 52.8502442,16.5516295 52.8065811,16.4979453 C52.7614863,16.4464084 52.7106653,16.4034611 52.6534021,16.3805558 C52.5975705,16.3512084 52.5345811,16.3361768 52.4687284,16.3361768 C52.4007284,16.3361768 52.3391705,16.3512084 52.2833389,16.3805558 C52.2239284,16.4034611 52.1752547,16.4464084 52.13016,16.4979453 C52.0850653,16.5516295 52.0507074,16.6167663 52.0263705,16.69264 C51.9984547,16.7685137 51.9877179,16.85584 51.9877179,16.9474611 C51.9877179,17.0455242 51.9984547,17.1342821 52.0263705,17.2072926 C52.0507074,17.2838821 52.0850653,17.3461558 52.13016,17.3984084 C52.1752547,17.4528084 52.2239284,17.4928926 52.2833389,17.5208084 C52.3391705,17.5465768 52.4007284,17.5616084 52.4687284,17.5616084 Z M55.0739874,17.7335411 C55.0739874,17.8115621 55.0303242,17.8759832 54.9429979,17.9339621 C54.8578189,17.9905095 54.7411453,18.0155621 54.5994189,18.0155621 C54.4533979,18.0155621 54.3317137,17.98192 54.2250611,17.9117726 C54.1205558,17.8437726 54.0496926,17.7464253 54.0103242,17.6247411 C53.9938611,17.5717726 53.9809768,17.5166568 53.9738189,17.4601095 C53.9680926,17.4035621 53.9652295,17.3248253 53.9652295,17.2274779 L53.9652295,16.3534989 L53.8041768,16.3534989 C53.7368926,16.3534989 53.6817768,16.3320253 53.6402611,16.2826358 C53.60304,16.2332463 53.5801347,16.1795621 53.5801347,16.1230147 C53.5801347,16.0664674 53.60304,16.0113516 53.6402611,15.9626779 C53.6817768,15.91472 53.7368926,15.8903832 53.8041768,15.8903832 L53.9652295,15.8903832 L53.9652295,15.5532463 C53.9652295,15.4873937 53.9917137,15.4337095 54.0425347,15.3878989 C54.0976505,15.3406568 54.1599242,15.3191832 54.2315032,15.3191832 C54.3030821,15.3191832 54.3653558,15.3406568 54.4176084,15.3878989 C54.4698611,15.4337095 54.4934821,15.4873937 54.4934821,15.5532463 L54.4934821,15.8903832 L54.82704,15.8903832 C54.8986189,15.8903832 54.9523032,15.91472 54.9938189,15.9626779 C55.0339032,16.0113516 55.0539453,16.0664674 55.0539453,16.1230147 C55.0539453,16.1795621 55.0339032,16.2332463 54.9938189,16.2826358 C54.9523032,16.3320253 54.8986189,16.3534989 54.82704,16.3534989 L54.4934821,16.3534989 L54.4934821,17.2489516 C54.4934821,17.3584674 54.51424,17.4350568 54.5543242,17.4751411 C54.5915453,17.5166568 54.6316295,17.5359832 54.6788716,17.5359832 C54.6989137,17.5359832 54.71824,17.5359832 54.7311242,17.53312 C54.7461558,17.53312 54.7619032,17.5266779 54.7719242,17.5252463 C54.7876716,17.5223832 54.8012716,17.51952 54.8198821,17.5166568 C54.8356295,17.5137937 54.8556716,17.5137937 54.8749979,17.5137937 C54.9387032,17.5137937 54.9866611,17.5359832 55.0203032,17.5789305 C55.05824,17.6233095 55.0739874,17.6734147 55.0739874,17.7335411 Z M55.8872674,17.7930232 C55.8872674,17.85816 55.8600674,17.9118442 55.8099621,17.9547916 C55.7591411,17.9948758 55.6975832,18.0156337 55.6252884,18.0156337 C55.5508463,18.0156337 55.4900042,17.9948758 55.4391832,17.9547916 C55.3883621,17.9118442 55.3604463,17.85816 55.3604463,17.7930232 L55.3604463,16.0937389 C55.3604463,16.0300337 55.3883621,15.9777811 55.4391832,15.9348337 C55.4900042,15.8918863 55.5508463,15.8696968 55.6252884,15.8696968 C55.6975832,15.8696968 55.7591411,15.8918863 55.8099621,15.9348337 C55.8600674,15.9777811 55.8872674,16.0300337 55.8872674,16.0937389 L55.8872674,17.7930232 Z M57.6919874,17.7852211 C57.63544,17.8510737 57.55384,17.9061895 57.4521979,17.9498526 C57.3491242,17.9949474 57.2439032,18.0149895 57.1365347,18.0149895 C56.9976716,18.0149895 56.8724084,17.9863579 56.7600295,17.9248 C56.6505137,17.8618105 56.5553137,17.7852211 56.47944,17.6842947 C56.4028505,17.5833684 56.3412926,17.4688421 56.3040716,17.3421474 C56.2625558,17.2140211 56.2425137,17.0851789 56.2425137,16.9470316 C56.2425137,16.8232 56.26184,16.6972211 56.2990611,16.5712421 C56.3384295,16.4424 56.3964084,16.3250105 56.4744295,16.2205053 C56.5510189,16.1167158 56.6440716,16.0315368 56.7543032,15.9685474 C56.8659663,15.9034105 56.9940926,15.8697684 57.1365347,15.8697684 C57.2439032,15.8697684 57.3412505,15.8905263 57.4292926,15.9334737 C57.5187663,15.9742737 57.59464,16.0279579 57.6526189,16.0938105 C57.6526189,16.0752 57.6540505,16.0530105 57.6662189,16.0272421 C57.6776716,16.0007579 57.6905558,15.9764211 57.7105979,15.9528 C57.7327874,15.9291789 57.7585558,15.9091368 57.7921979,15.8933895 C57.8244084,15.8783579 57.8680716,15.8697684 57.9188926,15.8697684 C57.9911874,15.8697684 58.0534611,15.8933895 58.1057137,15.9413474 C58.1593979,15.9857263 58.1844505,16.0444211 58.1844505,16.1059789 L58.1844505,17.3500211 C58.1844505,17.3958316 58.1908926,17.4373474 58.1994821,17.4688421 C58.2080716,17.5017684 58.2238189,17.5268211 58.2388505,17.5504421 C58.2574611,17.5719158 58.2717768,17.5962526 58.2875242,17.6248842 C58.30184,17.6535158 58.3097137,17.6907368 58.3097137,17.7365474 C58.3097137,17.8188632 58.2853768,17.8847158 58.2266821,17.9384 C58.1744295,17.9906526 58.1121558,18.0149895 58.0420084,18.0149895 C57.9868926,18.0149895 57.9289137,18.0042526 57.8709347,17.9792 C57.8108084,17.9498526 57.7499663,17.8861474 57.6919874,17.7852211 Z M57.6540505,16.8654316 C57.6540505,16.8124632 57.6526189,16.7680842 57.6526189,16.7294316 C57.6526189,16.6929263 57.6483242,16.6592842 57.6440295,16.6320842 C57.6397347,16.6013053 57.63544,16.5733895 57.6211242,16.5504842 C57.6103874,16.5268632 57.5960716,16.5039579 57.5774611,16.4817684 C57.54024,16.4381053 57.4922821,16.4030316 57.43144,16.3751158 C57.3727453,16.3507789 57.3047453,16.3364632 57.2360295,16.3364632 C57.1716084,16.3364632 57.1121979,16.3507789 57.0556505,16.3815579 C56.9983874,16.4137684 56.9511453,16.4574316 56.9110611,16.5111158 C56.8724084,16.5676632 56.8401979,16.6335158 56.8187242,16.7058105 C56.7943874,16.7816842 56.7836505,16.8625684 56.7836505,16.9470316 C56.7836505,17.1388632 56.8273137,17.2856 56.9160716,17.3915368 C57.0026821,17.4981895 57.1107663,17.5504421 57.2360295,17.5504421 C57.3047453,17.5504421 57.3727453,17.5361263 57.43144,17.5103579 C57.4922821,17.4831579 57.54024,17.4466526 57.5774611,17.4037053 C57.6153979,17.3607579 57.6383032,17.3120842 57.6440295,17.2584 C57.6526189,17.2047158 57.6540505,17.1252632 57.6540505,17.0214737 L57.6540505,16.8654316 Z M55.3353937,15.3099495 C55.3353937,15.2304968 55.3654568,15.1632126 55.4184253,15.1052337 C55.4749726,15.0501179 55.5429726,15.0222021 55.6252884,15.0222021 C55.7054568,15.0222021 55.7720253,15.0501179 55.8285726,15.1052337 C55.8822568,15.1632126 55.9130358,15.2304968 55.9130358,15.3099495 C55.9130358,15.3922653 55.8822568,15.4581179 55.8285726,15.5139495 C55.7720253,15.5712126 55.7054568,15.5984126 55.6252884,15.5984126 C55.5429726,15.5984126 55.4749726,15.5712126 55.4184253,15.5139495 C55.3654568,15.4581179 55.3353937,15.3922653 55.3353937,15.3099495 Z M59.1950021,16.0663242 C59.2587074,16.0097768 59.3345811,15.9632505 59.4290653,15.9253137 C59.5228337,15.8888084 59.6158863,15.8687663 59.7089389,15.8687663 C59.8542442,15.8687663 59.9780758,15.8995453 60.0875916,15.9618189 C60.1978232,16.0226611 60.2923074,16.1042611 60.3710442,16.2037558 C60.4476337,16.3032505 60.5063284,16.4177768 60.54856,16.5459032 C60.5886442,16.6711663 60.6094021,16.8028716 60.6094021,16.9367242 C60.6094021,17.0634189 60.5886442,17.1893979 60.5499916,17.31824 C60.5091916,17.4442189 60.45336,17.5601768 60.3782021,17.6639663 C60.2994653,17.7713347 60.2049811,17.8522189 60.0933179,17.9180716 C59.9830863,17.9832084 59.8563916,18.0168505 59.7089389,18.0168505 C59.6030021,18.0168505 59.5092337,17.9946611 59.4183284,17.9545768 C59.3295705,17.9101979 59.2544126,17.8579453 59.1978653,17.7928084 C59.1921389,17.8149979 59.1864126,17.8400505 59.1756758,17.8658189 C59.1663705,17.8915874 59.1499074,17.91664 59.1284337,17.9366821 C59.1048126,17.9603032 59.0754653,17.9789137 59.0439705,17.9932295 C59.01176,18.0096926 58.9688126,18.0168505 58.9187074,18.0168505 C58.8449811,18.0168505 58.7870021,17.9932295 58.7368968,17.9452716 C58.6882232,17.8980295 58.6638863,17.8364716 58.6638863,17.7591663 L58.6638863,15.2345768 C58.6638863,15.1708716 58.6889389,15.1186189 58.7419074,15.0728084 C58.7927284,15.0327242 58.8550021,15.0098189 58.9272968,15.0098189 C59.0017389,15.0098189 59.0654442,15.0327242 59.1176968,15.0728084 C59.1678021,15.1186189 59.1950021,15.1708716 59.1950021,15.2345768 L59.1950021,16.0663242 Z M59.1950021,17.0240505 C59.1950021,17.1299874 59.1978653,17.2087242 59.2035916,17.2595453 C59.2107495,17.3117979 59.2358021,17.3611874 59.2730232,17.4048505 C59.3102442,17.4470821 59.3574863,17.4835874 59.4176126,17.5107874 C59.4763074,17.5365558 59.54216,17.5501558 59.6137389,17.5501558 C59.7440126,17.5501558 59.8542442,17.4928926 59.9387074,17.3819453 C60.0231705,17.2695663 60.0654021,17.1199663 60.0654021,16.9367242 C60.0654021,16.8451032 60.0539495,16.7627874 60.0303284,16.6883453 C60.0059916,16.6146189 59.9737811,16.5516295 59.9322653,16.5008084 C59.8928968,16.4507032 59.8449389,16.4077558 59.7912547,16.3805558 C59.7354232,16.3497768 59.6745811,16.3361768 59.6137389,16.3361768 C59.54216,16.3361768 59.4763074,16.3497768 59.4176126,16.3755453 C59.3574863,16.4034611 59.3102442,16.4385347 59.2730232,16.4814821 C59.2544126,16.5036716 59.2379495,16.5287242 59.2279284,16.5501979 C59.2150442,16.5745347 59.2100337,16.6010189 59.2035916,16.6317979 C59.1992968,16.6589979 59.1978653,16.69264 59.1950021,16.7305768 L59.1950021,16.8651453 L59.1950021,17.0240505 Z M62.3340968,17.7852211 C62.2754021,17.8510737 62.1952337,17.9061895 62.0928758,17.9498526 C61.9898021,17.9949474 61.8852968,18.0149895 61.7807916,18.0149895 C61.6369179,18.0149895 61.5123705,17.9863579 61.4028547,17.9248 C61.2904758,17.8618105 61.1974232,17.7852211 61.1194021,17.6842947 C61.0406653,17.5833684 60.9848337,17.4688421 60.9426021,17.3421474 C60.9010863,17.2140211 60.8824758,17.0851789 60.8824758,16.9470316 C60.8824758,16.8232 60.9010863,16.6972211 60.9404547,16.5712421 C60.9791074,16.4424 61.0363705,16.3250105 61.1136758,16.2205053 C61.1909811,16.1167158 61.2847495,16.0315368 61.3971284,15.9685474 C61.5059284,15.9034105 61.6354863,15.8697684 61.7807916,15.8697684 C61.8852968,15.8697684 61.9826442,15.8905263 62.0714021,15.9334737 C62.16016,15.9742737 62.2346021,16.0279579 62.2925811,16.0938105 C62.2925811,16.0752 62.2975916,16.0530105 62.3076126,16.0272421 C62.3169179,16.0007579 62.3326653,15.9764211 62.3527074,15.9528 C62.3741811,15.9291789 62.4028126,15.9091368 62.4350232,15.8933895 C62.4672337,15.8783579 62.5080337,15.8697684 62.5610021,15.8697684 C62.6311495,15.8697684 62.6934232,15.8933895 62.7456758,15.9413474 C62.7979284,15.9857263 62.8279916,16.0444211 62.8279916,16.1059789 L62.8279916,17.3500211 C62.8279916,17.3958316 62.8315705,17.4373474 62.8415916,17.4688421 C62.8508968,17.5017684 62.8644968,17.5268211 62.8816758,17.5504421 C62.8952758,17.5719158 62.9124547,17.5962526 62.9267705,17.6248842 C62.9453811,17.6535158 62.94896,17.6907368 62.94896,17.7365474 C62.94896,17.8188632 62.9246232,17.8847158 62.8709389,17.9384 C62.8151074,17.9906526 62.7528337,18.0149895 62.6841179,18.0149895 C62.6275705,18.0149895 62.5703074,18.0042526 62.5101811,17.9792 C62.4522021,17.9498526 62.3920758,17.8861474 62.3340968,17.7852211 Z M62.2975916,16.8654316 C62.2975916,16.8124632 62.29616,16.7680842 62.2954442,16.7294316 C62.2925811,16.6929263 62.2911495,16.6592842 62.2854232,16.6320842 C62.2818442,16.6013053 62.2725389,16.5733895 62.2646653,16.5504842 C62.2503495,16.5268632 62.2360337,16.5039579 62.2174232,16.4817684 C62.1816337,16.4381053 62.1315284,16.4030316 62.0742653,16.3751158 C62.0134232,16.3507789 61.9468547,16.3364632 61.8752758,16.3364632 C61.8115705,16.3364632 61.75216,16.3507789 61.6963284,16.3815579 C61.6390653,16.4137684 61.5918232,16.4574316 61.5538863,16.5111158 C61.5123705,16.5676632 61.48016,16.6335158 61.4579705,16.7058105 C61.4372126,16.7816842 61.42576,16.8625684 61.42576,16.9470316 C61.42576,17.1388632 61.4694232,17.2856 61.5553179,17.3915368 C61.6455074,17.4981895 61.7485811,17.5504421 61.8752758,17.5504421 C61.9468547,17.5504421 62.0134232,17.5361263 62.0742653,17.5103579 C62.1315284,17.4831579 62.1816337,17.4466526 62.2174232,17.4037053 C62.2560758,17.3607579 62.2804126,17.3120842 62.2854232,17.2584 C62.2925811,17.2047158 62.2975916,17.1252632 62.2975916,17.0214737 L62.2975916,16.8654316 Z M64.5351495,16.7423874 C64.5351495,16.6793979 64.5301389,16.6271453 64.5194021,16.5849137 C64.5100968,16.5412505 64.4943495,16.5004505 64.4728758,16.4639453 C64.4514021,16.4267242 64.4213389,16.3966611 64.3783916,16.3708926 C64.33616,16.3494189 64.2860547,16.3365347 64.2223495,16.3365347 C64.1063916,16.3365347 64.0133389,16.3737558 63.9396126,16.45464 C63.8694653,16.5312295 63.8351074,16.6343032 63.8351074,16.7581347 L63.8351074,17.7931663 C63.8351074,17.8583032 63.8100547,17.9105558 63.7563705,17.9542189 C63.7019705,17.9950189 63.6411284,18.0164926 63.5674021,18.0164926 C63.4943916,18.0164926 63.4349811,17.9950189 63.3820126,17.9542189 C63.3304758,17.9105558 63.3054232,17.8583032 63.3054232,17.7931663 L63.3054232,16.0938821 C63.3054232,16.0280295 63.3319074,15.9729137 63.38416,15.9349768 C63.4378442,15.8905979 63.4986863,15.86984 63.5716968,15.86984 C63.6368337,15.86984 63.6948126,15.8905979 63.7506442,15.9263874 C63.8064758,15.9671874 63.8351074,16.0223032 63.8351074,16.0938821 C63.8895074,16.0359032 63.9632337,15.9829347 64.0570021,15.9364084 C64.1507705,15.8927453 64.2602863,15.86984 64.3841179,15.86984 C64.5859705,15.86984 64.7484547,15.9414189 64.8751495,16.0809979 C65.0011284,16.2241558 65.0641179,16.4224295 65.0641179,16.6708084 L65.0641179,17.7931663 C65.0641179,17.8583032 65.0390653,17.9105558 64.9868126,17.9542189 C64.9352758,17.9950189 64.8751495,18.0164926 64.8014232,18.0164926 C64.7298442,18.0164926 64.6668547,17.9950189 64.6146021,17.9542189 C64.5616337,17.9105558 64.5351495,17.8583032 64.5351495,17.7931663 L64.5351495,16.7423874 Z M67.1455621,16.3320253 C67.0689726,16.4007411 66.9859411,16.47232 66.8914568,16.5460463 C66.7969726,16.6254989 66.6974779,16.7056674 66.5915411,16.7958568 C66.6280463,16.8445305 66.66312,16.8960674 66.7024884,16.9454568 C66.7432884,16.9962779 66.7869516,17.0528253 66.8341937,17.1172463 C66.8842989,17.1809516 66.9408463,17.2503832 67.00312,17.3312674 C67.0689726,17.41072 67.1455621,17.5023411 67.2328884,17.6140042 C67.2593726,17.6447832 67.2808463,17.6762779 67.2894358,17.7070568 C67.2994568,17.7349726 67.3051832,17.7593095 67.3051832,17.7836463 C67.3051832,17.8401937 67.2808463,17.8953095 67.2328884,17.9425516 C67.1834989,17.9912253 67.1283832,18.0155621 67.0539411,18.0155621 C66.9709095,18.0155621 66.9000463,17.9847832 66.8370568,17.9253726 C66.7955411,17.8738358 66.7576042,17.8308884 66.71752,17.7822147 C66.6802989,17.7349726 66.6387832,17.6841516 66.5944042,17.6247411 C66.5507411,17.5660463 66.4992042,17.4980463 66.4376463,17.4164463 C66.3789516,17.3348463 66.3059411,17.2346358 66.2100253,17.11152 C66.1828253,17.1344253 66.1584884,17.15232 66.1348674,17.1709305 C66.1148253,17.1852463 66.0861937,17.2088674 66.0582779,17.2382147 L66.0582779,17.7929516 C66.0582779,17.8552253 66.0303621,17.9074779 65.9788253,17.9532884 C65.9251411,17.9948042 65.8621516,18.0155621 65.7920042,18.0155621 C65.7146989,18.0155621 65.6574358,17.9948042 65.6044674,17.9532884 C65.5529305,17.9074779 65.5264463,17.8552253 65.5264463,17.7929516 L65.5264463,15.2361516 C65.5264463,15.1710147 65.5529305,15.1173305 65.6044674,15.0729516 C65.6574358,15.0328674 65.7146989,15.0092463 65.7920042,15.0092463 C65.8621516,15.0092463 65.9251411,15.0328674 65.9788253,15.0729516 C66.0303621,15.1173305 66.0582779,15.1710147 66.0582779,15.2361516 L66.0582779,16.6390989 C66.1806779,16.5281516 66.3059411,16.4222147 66.4247621,16.3119832 C66.5485937,16.2038989 66.6717095,16.0922358 66.79912,15.9741305 C66.8420674,15.9347621 66.8800042,15.9089937 66.9157937,15.8932463 C66.9508674,15.8782147 66.98952,15.8696253 67.03032,15.8696253 C67.0961726,15.8696253 67.15272,15.8946779 67.2006779,15.9469305 C67.24792,15.9977516 67.2708253,16.0542989 67.2708253,16.1165726 C67.2708253,16.1416253 67.2643832,16.1702568 67.2514989,16.2038989 C67.2357516,16.2361095 67.2028253,16.2797726 67.1455621,16.3320253 Z" id="SCOTIABANK" fill="#ED0722"></path>
                <path d="M59.3022989,0.433696842 L61.0173305,0.433696842 L60.7023832,2.34342316 L60.0180884,6.80708632 L58.3016253,6.80708632 L59.3022989,0.433696842 Z M65.8211368,0.434698947 L67.2999579,6.80737263 L65.4732632,6.80737263 L65.2184421,5.71006737 L62.8713684,5.71006737 L62.2479158,6.80737263 L60.4197895,6.80737263 L60.7018105,6.24333053 L63.9593684,0.434698947 L65.8211368,0.434698947 Z M63.5320421,4.44956211 L64.9614737,4.44956211 L64.5634947,2.39882526 L64.2449684,3.01798316 L63.5320421,4.44956211 Z M48.5049726,0.433696842 L53.0158779,0.433696842 L52.8204674,1.83736 L51.3931832,1.83736 L50.6201305,6.80708632 L48.9022358,6.80708632 L49.6774358,1.83736 L48.27592,1.83736 L48.5049726,0.433696842 Z M58.0755074,2.39875368 C57.9588337,3.26772211 57.3325179,4.02645895 56.35976,4.19538526 L58.01896,6.80801684 L55.8758863,6.80801684 L55.5609389,6.16094316 L54.6497389,4.36359579 L54.2467495,6.80801684 L52.5324337,6.80801684 L52.7614863,5.28982737 L53.5567284,0.433911579 L56.1049389,0.433911579 C57.4176968,0.433911579 58.3016968,1.02229053 58.0755074,2.39875368 Z M56.3032126,2.48178526 C56.35976,1.92203789 55.9896968,1.75311158 55.5609389,1.69370105 L55.0770653,1.69370105 L54.8172337,3.29850105 L54.9883074,3.29850105 C55.1586653,3.29850105 55.3619495,3.26772211 55.5609389,3.21260632 C55.9030863,3.12671158 56.2180337,2.93130105 56.3032126,2.48178526 Z M46.7323916,0.434698947 L48.1897389,6.80737263 L46.3616126,6.80737263 L46.1017811,5.71006737 L43.7590021,5.71006737 L43.1341179,6.80737263 L41.3059916,6.80737263 L42.1048126,5.31924632 L44.8491495,0.434698947 L46.7323916,0.434698947 Z M44.4168126,4.44956211 L45.8498232,4.44956211 L45.4489811,2.39882526 L45.1333179,3.01798316 L44.4168126,4.44956211 Z M42.1041684,0.655949474 C42.7326316,0.967317895 43.0447158,1.55569684 42.9058526,2.53990737 C42.7898947,3.24281263 42.5329263,3.74601263 42.1041684,4.11249684 C41.6739789,4.47754947 41.0462316,4.67296 40.3046737,4.70230737 L39.2796632,4.70230737 L38.9303579,6.80744421 L37.2174737,6.80744421 L38.2467789,0.434054737 L40.8458105,0.434054737 C41.3325474,0.434054737 41.7598737,0.487738947 42.1041684,0.655949474 Z M41.1335579,2.56710737 C41.2208842,1.89283368 40.8164632,1.75325474 40.3046737,1.75325474 L39.7334737,1.75325474 L39.4765053,3.35232842 L39.7613895,3.35232842 C39.9324632,3.35232842 40.1350316,3.35232842 40.3046737,3.32369684 C40.7062316,3.26786526 41.0204632,3.10251789 41.1335579,2.56710737 Z M32.9893768,6.80730105 L32.9893768,6.69420632 L34.0201137,0.434627368 L35.7322821,0.434627368 L34.9356084,5.40005895 L36.9892084,5.40005895 L36.75944,6.80730105 L32.9893768,6.80730105 Z M32.7939663,2.68936421 C32.8225979,2.89551158 32.8225979,3.13386947 32.7939663,3.36793263 L32.7939663,3.50035368 C32.5291242,5.26048 31.1397768,6.54961684 29.4025558,6.75791158 C29.2157347,6.78224842 29.0289137,6.81016421 28.8685768,6.81016421 C27.3468084,6.81016421 26.2774189,5.99488 26.0125768,4.73580632 C25.9331242,4.36860632 25.9331242,3.94700632 26.0125768,3.50035368 L26.0125768,3.39871158 C26.3081979,1.79391158 27.8292505,0.641490526 29.4025558,0.455385263 C29.5621768,0.431048421 29.7225137,0.431048421 29.8821347,0.431048421 C31.3552295,0.431048421 32.6379242,1.32292211 32.7939663,2.68936421 Z M31.1397768,3.52683789 C31.2772084,2.68936421 30.6072295,1.92490105 29.6437768,1.92490105 L29.4025558,1.92490105 C28.5471874,2.05875368 27.7734189,2.74161684 27.6653347,3.52683789 C27.5100084,4.55184842 28.17784,5.28696421 29.1090821,5.28696421 C29.1913979,5.28696421 29.2973347,5.26048 29.4025558,5.26048 C30.2321558,5.13306947 30.9823032,4.44233263 31.1397768,3.52683789 Z M25.9800084,0.683936842 L26.0573137,0.708273684 L25.9800084,1.08477895 L25.7352084,2.60654737 C25.4889768,2.17778947 24.9764716,1.938 24.4281768,1.938 C23.4224926,1.938 22.6372716,2.68957895 22.5041347,3.62153684 C22.33664,4.57997895 22.90784,5.27501053 23.9135242,5.27501053 C24.4560926,5.27501053 25.0265768,5.03522105 25.4352926,4.63581053 L25.1346611,6.52907368 C24.5656084,6.69298947 24.1583242,6.79534737 23.6443874,6.79534737 C22.7711242,6.79534737 21.9859032,6.47610526 21.4411874,5.91635789 C20.8413558,5.30006316 20.6545347,4.52629474 20.7905347,3.62153684 C20.9279663,2.78978947 21.3860716,1.99168421 22.0660716,1.40903158 C22.7711242,0.791305263 23.7224084,0.417663158 24.6185768,0.417663158 C25.1081768,0.417663158 25.54624,0.495684211 25.9800084,0.683936842 Z" id="COLPATRIA" fill="#ED0722"></path>
                <path d="M39.0281347,9.02946947 C39.0811032,9.04664842 39.1261979,9.07671158 39.1261979,9.07671158 L39.0116716,9.72020632 C38.9043032,9.57919579 38.7339453,9.50332211 38.5335242,9.50332211 C38.1720505,9.50332211 37.8907453,9.76959579 37.8370611,10.0888379 C37.7783663,10.4109432 37.9752084,10.6170905 38.3424084,10.6170905 C38.5335242,10.6170905 38.7640084,10.5397853 38.9043032,10.4045011 L38.7904926,11.0694695 C38.5929347,11.1245853 38.42544,11.1503537 38.2600926,11.1503537 C37.9458611,11.1503537 37.6681347,11.0773432 37.4705768,10.8919537 C37.2501137,10.6736379 37.1899874,10.3830274 37.2193347,10.0888379 C37.2758821,9.79536421 37.4448084,9.50332211 37.6960505,9.31721684 C37.9458611,9.10391158 38.2872926,8.97435368 38.5957979,8.96576421 C38.7904926,8.96146947 38.9415242,8.99296421 39.0281347,9.02946947 Z M40.8119537,8.96848421 L41.3180168,11.1459158 L40.6995747,11.1459158 L40.6179747,10.7622526 L39.8005432,10.7622526 L39.5765011,11.1459158 L38.9537642,11.1459158 L40.1663116,8.96848421 L40.8119537,8.96848421 Z M40.0231537,10.3478105 L40.5005853,10.3478105 L40.3917853,9.62844211 L40.2500589,9.87753684 L40.0231537,10.3478105 Z M34.5243874,11.1460589 L34.8643874,8.96862737 L35.4506189,8.96862737 L36.3224505,10.2914063 L36.5178611,8.96862737 L37.1069558,8.96862737 L36.7691032,11.1460589 L36.1785768,11.1460589 L35.31104,9.82614316 L35.0805558,11.1460589 L34.5243874,11.1460589 Z M33.7941389,8.96848421 L34.3002021,11.1459158 L33.6831916,11.1459158 L33.5987284,10.7622526 L32.7855916,10.7622526 L32.5615495,11.1459158 L31.94096,11.1459158 L33.17856,8.96848421 L33.7941389,8.96848421 Z M33.0089179,10.3478105 L33.5128337,10.3478105 L33.3732547,9.62844211 L33.0089179,10.3478105 Z M31.5516421,9.98776842 C31.8572842,10.0178316 31.9589263,10.3134526 31.9109684,10.5403579 C31.8601474,10.7944632 31.7169895,10.9762737 31.4922316,11.0657474 C31.2667579,11.1595158 31.1479368,11.1502105 31.0155158,11.1459158 L30.1164842,11.1459158 L30.4514737,8.96848421 L31.2961053,8.96848421 C31.6940842,8.96848421 31.9410316,9.10734737 31.8859158,9.51677895 C31.8293684,9.74153684 31.7492,9.87753684 31.5516421,9.98776842 Z M31.0978316,10.6763579 C31.1980421,10.6548842 31.3318947,10.6126526 31.3569474,10.4830947 C31.3841474,10.3292 31.2345474,10.2504632 31.0978316,10.2375789 C30.9632632,10.2239789 30.8487368,10.2375789 30.8487368,10.2375789 L30.7678526,10.7057053 L30.8487368,10.7057053 C30.9110105,10.7042737 31.0019158,10.6949684 31.0978316,10.6763579 Z M30.9604,9.40869474 L30.9038526,9.82671579 C30.9038526,9.82671579 30.9718526,9.82456842 31.0978316,9.79593684 C31.2245263,9.76730526 31.2961053,9.71290526 31.3290316,9.60052632 C31.3290316,9.43661053 31.2395579,9.40869474 31.0978316,9.40869474 L30.9604,9.40869474 Z M27.7062063,8.96862737 L29.2480168,8.96862737 L29.1671326,9.43603789 L28.6904168,9.43603789 L28.4048168,11.1460589 L27.8171537,11.1460589 L28.0984589,9.43603789 L27.6238905,9.43603789 L27.7062063,8.96862737 Z M29.4732758,8.96862737 L30.0616547,8.96862737 L29.7223705,11.1460589 L29.1361389,11.1460589 L29.4732758,8.96862737 Z M27.1162526,8.96862737 L26.8642947,10.6765011 L27.5650526,10.6765011 L27.4805895,11.1460589 L26.1878737,11.1460589 L26.5278737,8.96862737 L27.1162526,8.96862737 Z M25.5700042,8.96862737 L26.1576674,8.96862737 L25.9644042,10.1790274 C25.9064253,10.4832379 25.8570358,10.7058484 25.6057937,10.8955326 C25.3810358,11.0866484 25.0746779,11.1446274 24.8177095,11.1446274 C24.5356884,11.1446274 24.2565305,11.0866484 24.0911832,10.8955326 C23.9236884,10.7058484 23.9444463,10.4832379 23.9752253,10.1790274 L24.1692042,8.96862737 L24.7582989,8.96862737 L24.60512,10.0351537 C24.5686147,10.3171747 24.5113516,10.6478695 24.9057516,10.6478695 C25.27152,10.6478695 25.3438147,10.3014274 25.4017937,10.0258484 L25.5700042,8.96862737 Z M20.7391411,11.1460589 L21.4713937,8.96862737 L22.0633516,8.96862737 L22.3138779,10.1253432 L22.9895832,8.96862737 L23.5779621,8.96862737 L23.5779621,11.1460589 L22.9895832,11.1460589 L23.0167832,9.90774316 L22.2594779,11.1460589 L22.0361516,11.1460589 L21.7276463,9.90774316 L21.3353937,11.1460589 L20.7391411,11.1460589 Z" id="MULTIBANCA" fill="#ED0722"></path>
                <ellipse id="BACKGROUND" fill="#ED0722" cx="9.58092229" cy="5.68496748" rx="8.73831628" ry="5.36315999"></ellipse>
                <path d="M3.48094331,9.52513864 C6.55022106,9.52381277 8.972022,8.96821993 10.7463461,7.85836012 C10.1719294,8.07654082 8.93082892,8.35732032 6.64541376,8.08502706 C5.28223803,7.922613 2.72245837,7.05721454 2.52269001,5.40027505 C2.29824502,3.53866017 5.00943851,1.69677319 9.43083024,1.15867811 C10.5097095,1.02737565 12.226244,1.06973589 14.5804337,1.28575885 C13.1638647,0.678203265 11.4402064,0.321807482 9.58092229,0.321807482 C4.75488347,0.321807482 0.842606005,2.722976 0.842606005,5.68496748 C0.842606005,7.19045426 1.85329127,8.55105983 3.48094331,9.52513864 Z M4.59498854,10.0899877 C6.00898768,10.6940038 7.72757435,11.0481275 9.58092229,11.0481275 C14.4069611,11.0481275 18.3192386,8.64695895 18.3192386,5.68496748 C18.3192386,4.18225768 17.3122784,2.82389509 15.689902,1.85019054 C12.6140961,1.84985849 10.1877047,2.40545207 8.41072767,3.51697129 C8.98514441,3.29879059 10.2262449,3.01801109 12.5116601,3.29030435 C13.8748358,3.45271842 16.4346155,4.31811688 16.6343838,5.97505636 C16.8588288,7.83667124 14.1476353,9.67855822 9.72624358,10.2166533 C8.64805582,10.3478716 6.93763747,10.3056498 4.59498854,10.0899877 Z M8.13580843,3.69691667 C8.10724027,3.71647806 8.07885365,3.73619485 8.05064856,3.75606704 C5.36867253,5.64568168 7.15019288,8.32152051 11.0212654,7.67841475 C11.0498335,7.65885336 11.0782202,7.63913657 11.1064253,7.61926438 C13.7884013,5.72964973 12.0068809,3.05381091 8.13580843,3.69691667 Z M9.58092229,11.2447844 C4.57792176,11.2447844 0.522188494,8.75556957 0.522188494,5.68496748 C0.522188494,2.61436538 4.57792176,0.125150561 9.58092229,0.125150561 C14.5839228,0.125150561 18.6396561,2.61436538 18.6396561,5.68496748 C18.6396561,8.75556957 14.5839228,11.2447844 9.58092229,11.2447844 Z" id="ISO" fill="#FFFFFF"></path>
                <polygon id="Fill-1" fill="#ED0722" points="0.551157895 13.6455242 67.3207158 13.6455242 67.3207158 13.2854821 0.551157895 13.2854821"></polygon>
            </g>
        </g>
    </g>
</svg>